<svg width="270" height="276" viewBox="0 0 270 276" fill="none" xmlns="http://www.w3.org/2000/svg">
<path d="M135 0L136.228 132.618L194.876 13.6663L138.442 133.684L242.893 51.9584L139.973 135.605L269.54 107.292L140.52 138L269.54 168.708L139.973 140.395L242.893 224.042L138.442 142.316L194.876 262.334L136.228 143.382L135 276L133.772 143.382L75.124 262.334L131.558 142.316L27.1073 224.042L130.027 140.395L0.459946 168.708L129.48 138L0.459946 107.292L130.027 135.605L27.1073 51.9584L131.558 133.684L75.124 13.6663L133.772 132.618L135 0Z" fill="white"/>
</svg>
